<?xml version="1.0" standalone="no"?>
<svg  version="1.0" xmlns="http://www.w3.org/2000/svg"
 width="60" height="60" viewBox="0 0 304.000000 304.000000"
 preserveAspectRatio="xMidYMid meet">
    <circle cx="152" cy="152" r="152" fill="white"/>
<g transform="translate(0.000000,304.000000) scale(0.100000,-0.100000)"
   fill="#ed1b24" stroke="none">
<path d="M1335 2317 c-409 -694 -825 -1411 -820 -1415 2 -2 208 85 458 194
l455 199 -154 3 c-85 1 -154 5 -154 9 0 11 394 683 400 683 4 0 60 -87 126
-192 65 -106 160 -260 211 -341 58 -93 88 -150 80 -152 -7 -3 -83 -6 -170 -7
l-157 -3 417 -179 c230 -99 442 -190 471 -203 l52 -23 -14 23 c-7 12 -114 195
-236 407 -288 498 -760 1303 -768 1312 -4 4 -92 -138 -197 -315z"/>
</g>
</svg>
